<?xml version="1.0" standalone="no"?>
<!DOCTYPE svg PUBLIC "-//W3C//DTD SVG 20010904//EN"
 "http://www.w3.org/TR/2001/REC-SVG-20010904/DTD/svg10.dtd">
<svg version="1.0" xmlns="http://www.w3.org/2000/svg"
 width="512.000000pt" height="512.000000pt" viewBox="0 0 512.000000 512.000000"
 preserveAspectRatio="xMidYMid meet">

<g transform="translate(0.000000,512.000000) scale(0.100000,-0.100000)"
fill="#000000" stroke="none">
<path d="M2352 5063 c-13 -3 -152 -49 -309 -104 -157 -54 -287 -99 -289 -99
-8 0 -34 -60 -34 -78 0 -28 42 -62 77 -62 16 0 153 43 304 96 211 74 287 96
329 96 47 1 201 -49 1122 -368 587 -203 1068 -372 1068 -375 0 -10 -561 -200
-571 -194 -5 4 -9 13 -9 21 0 32 -51 114 -96 153 -57 50 -98 63 -309 96 -686
107 -1425 119 -2120 34 -262 -32 -452 -67 -505 -94 -75 -38 -149 -138 -150
-202 0 -13 -6 -23 -12 -23 -7 0 -148 47 -313 104 -257 89 -296 106 -275 114
14 5 297 103 630 218 412 142 612 216 628 231 45 44 12 123 -52 123 -15 0
-314 -99 -664 -220 -615 -213 -638 -222 -674 -260 -24 -24 -39 -50 -40 -67 -4
-80 15 -131 59 -160 14 -10 204 -79 422 -154 l396 -137 3 -369 2 -369 -97 -22
c-288 -65 -510 -282 -584 -567 -28 -109 -28 -270 0 -380 40 -156 147 -324 259
-410 29 -21 52 -42 52 -45 0 -3 -34 -16 -75 -29 -177 -56 -353 -210 -438 -383
-65 -132 -81 -198 -81 -348 -1 -145 14 -212 73 -335 113 -236 326 -395 581
-434 56 -9 590 -11 2060 -9 1836 3 1987 4 2016 20 41 23 89 73 111 117 24 51
22 144 -5 197 -34 67 -80 101 -177 130 -34 11 -47 41 -71 162 -18 96 -18 210
2 313 24 126 34 146 83 154 113 19 204 146 185 259 -18 113 -99 188 -216 202
l-54 6 4 58 c5 73 -11 122 -56 172 -42 46 -78 67 -135 76 l-42 8 -23 79 c-40
137 -41 317 -2 457 l11 37 55 -30 56 -29 247 0 c216 0 251 3 286 19 75 34 125
113 125 199 0 18 -40 132 -89 255 l-90 222 32 65 c28 55 32 75 32 140 -1 124
-60 220 -169 273 l-56 28 0 288 c0 282 0 289 -23 321 -12 19 -36 42 -52 52
-17 9 -260 97 -540 193 -692 240 -981 340 -1305 452 -151 53 -297 102 -325
109 -48 13 -134 16 -183 7z m678 -1008 c335 -29 697 -84 711 -106 5 -8 9 -128
9 -266 l0 -253 -229 0 c-126 0 -241 -4 -255 -10 -57 -21 -70 -87 -24 -130 21
-19 34 -20 265 -20 l243 0 0 -125 0 -125 -1315 0 -1315 0 0 125 0 125 923 0
c914 0 923 0 945 20 46 43 33 109 -24 130 -15 6 -365 10 -890 10 l-864 0 0
273 0 274 148 22 c252 37 392 51 762 75 129 9 747 -4 910 -19z m1600 -238 l0
-183 -37 -13 c-56 -20 -146 -116 -166 -175 -31 -90 -20 -200 27 -269 l25 -36
-26 -65 -26 -66 -264 0 -263 0 2 371 3 371 355 124 c195 68 358 123 363 124 4
0 7 -82 7 -183z m150 -345 c38 -20 80 -89 80 -132 -1 -43 -37 -108 -72 -130
-69 -42 -165 -18 -209 52 -26 42 -22 126 8 166 43 59 128 78 193 44z m-65
-435 c33 1 69 3 79 5 16 3 31 -27 97 -187 43 -104 78 -198 79 -207 0 -10 -9
-27 -20 -38 -19 -19 -33 -20 -238 -20 -235 0 -262 6 -262 53 0 12 35 108 77
214 76 188 78 192 103 185 14 -3 52 -6 85 -5z m-355 -179 c0 -2 -13 -37 -29
-78 l-30 -75 -1673 -5 -1673 -5 -58 -22 c-233 -88 -361 -319 -302 -546 33
-126 121 -241 232 -300 93 -50 155 -57 520 -57 l332 0 27 23 c32 28 37 76 10
106 -17 18 -37 20 -379 23 l-362 3 -56 26 c-245 115 -245 455 0 567 53 24 65
26 226 26 l170 1 5 -227 c7 -297 6 -296 198 -220 l104 41 113 -45 c123 -48
147 -48 179 -2 13 19 16 57 16 240 l0 218 1136 0 1136 0 -6 -27 c-31 -148 -38
-215 -32 -333 3 -69 12 -152 21 -185 8 -33 15 -66 15 -72 0 -10 -229 -13
-1113 -13 -1104 0 -1114 0 -1132 -20 -28 -31 -24 -79 9 -107 l27 -23 1205 0
1205 0 24 -25 c33 -32 33 -78 0 -110 l-24 -25 -1718 0 c-1907 0 -1776 -4
-1923 68 -105 51 -222 168 -273 272 -49 100 -67 176 -67 282 0 115 14 176 62
278 33 69 56 100 122 165 92 90 169 136 278 165 70 18 132 19 1776 19 936 1
1702 0 1702 -1z m-1220 -1930 c0 -230 5 -253 52 -276 24 -11 39 -8 142 32
l116 44 112 -44 c113 -45 135 -47 171 -16 15 14 17 38 17 244 l0 228 361 0
361 0 -6 -27 c-31 -145 -38 -216 -33 -328 3 -67 14 -152 25 -192 l18 -73 -202
0 c-196 0 -204 -1 -229 -22 -14 -13 -27 -33 -28 -45 -1 -22 -5 -23 -99 -23
-96 0 -98 0 -104 25 -3 14 -18 34 -31 45 -25 20 -45 20 -1544 20 -1515 0
-1518 0 -1574 21 -151 56 -230 229 -178 389 19 58 87 141 137 167 81 42 59 42
1314 42 l1202 1 0 -212z m460 58 l0 -155 -62 25 c-77 30 -103 30 -178 0 l-60
-25 0 155 0 154 150 0 150 0 0 -154z"/>
</g>
</svg>
