<svg xmlns="http://www.w3.org/2000/svg" xmlns:xlink="http://www.w3.org/1999/xlink" width="1366" zoomAndPan="magnify" viewBox="0 0 1024.5 576" height="768" preserveAspectRatio="xMidYMid meet" version="1.0"><defs><clipPath id="5648f19f69"><path d="M 354.738281 107.21875 L 612.613281 107.21875 L 612.613281 531.511719 L 354.738281 531.511719 Z M 354.738281 107.21875 " clip-rule="nonzero"/></clipPath></defs><g clip-path="url(#5648f19f69)"><path fill="#ffffff" d="M 612.128906 351.863281 C 610.976562 348.5625 607.625 346.554688 604.175781 347.113281 C 601.175781 347.601562 598.164062 348.480469 595.773438 349.070312 C 594.464844 349.394531 589.421875 349.660156 588.242188 349.28125 C 587.085938 348.90625 583.011719 348.125 582.410156 348.023438 C 581.605469 347.886719 580.109375 346.6875 579.339844 346.640625 C 579.03125 346.621094 578.816406 346.992188 578.515625 346.960938 C 576.804688 346.78125 574.574219 343.816406 573.265625 341.679688 L 574.324219 340.878906 L 577.429688 338.800781 C 578.207031 336.90625 553.53125 304.636719 553.53125 304.636719 C 553.53125 304.636719 550.101562 299.65625 548.808594 298.230469 C 547.183594 296.296875 545 294.410156 543.277344 292.464844 C 539.566406 288.265625 533.367188 279.550781 528.011719 278.078125 C 527.808594 278.023438 527.597656 277.980469 527.378906 277.945312 C 527.378906 277.945312 522.351562 276.808594 519.558594 276.925781 C 517.476562 277.015625 499.667969 278.597656 489.472656 279.644531 L 489.46875 279.65625 L 486.609375 279.945312 L 480.578125 253.730469 C 480.332031 251.421875 479.644531 247.992188 477.71875 246.65625 C 477.109375 246.234375 476.597656 245.910156 476.167969 245.667969 C 475.742188 245.425781 475.480469 244.980469 475.480469 244.492188 C 475.480469 244.488281 475.480469 244.484375 475.480469 244.480469 C 475.488281 242.039062 477.070312 238.769531 476.171875 236.257812 C 476.144531 236.183594 476.113281 236.101562 476.078125 236.015625 C 475.460938 234.527344 475.128906 232.9375 475.136719 231.328125 C 475.140625 229.566406 475.1875 227.625 475.40625 227.035156 C 475.78125 226.039062 476.464844 226.992188 476.628906 223.984375 C 476.746094 221.839844 476.027344 221.351562 475.605469 221.25 L 475.945312 186.304688 C 479.3125 184.503906 484.183594 180.605469 483.515625 178.222656 C 483.371094 177.695312 482.410156 177.273438 482.332031 176.988281 C 482.191406 176.460938 483.074219 174.515625 482.003906 173.144531 C 481.632812 172.671875 481.457031 172.28125 481.640625 171.835938 C 482.253906 170.335938 481.84375 168.308594 481.09375 167.917969 C 481.195312 166.722656 481.960938 165.011719 481.96875 164.65625 C 482.011719 163.136719 480.820312 162.179688 479.71875 161.15625 C 478.65625 160.167969 477.007812 159.5 476.214844 158.679688 L 476.71875 107.359375 L 472.210938 107.359375 L 471.320312 160.507812 C 470.734375 161.785156 470 163.722656 469.597656 164.449219 C 467.699219 167.890625 466.585938 169.027344 465.699219 173.183594 C 464.957031 176.660156 465.621094 180.167969 464.414062 183.285156 C 464.066406 184.179688 463.46875 185.039062 463.101562 185.929688 C 462.992188 186.691406 463.75 187.367188 464.316406 188.148438 C 464.488281 188.386719 463.207031 193.21875 462.761719 194.886719 C 461.339844 200.199219 459.566406 205.546875 457.308594 210.558594 C 455.554688 214.453125 453.113281 218.125 451.886719 222.222656 C 451.082031 222.398438 446.605469 220.957031 444.378906 220.238281 C 443.953125 220.101562 443.609375 219.992188 443.390625 219.921875 C 440.457031 218.960938 437.667969 217.828125 436.5625 217.367188 C 436.5625 217.332031 436.5625 217.296875 436.5625 217.265625 C 436.5625 214.929688 430.847656 213.878906 428.1875 212.910156 C 427.679688 212.726562 426.914062 212.425781 425.980469 212.042969 L 440.355469 107.359375 L 435.957031 107.359375 C 435.957031 107.359375 422.964844 201.414062 421.605469 210.15625 C 418.082031 208.570312 414.164062 206.648438 412.058594 205.171875 C 408.824219 202.90625 408.449219 203.273438 408.410156 203.433594 C 408.550781 201.640625 409.96875 195.714844 411 194.480469 C 412.742188 192.398438 421.316406 193.296875 419.902344 187.839844 C 419.636719 186.820312 418.222656 185.519531 418.136719 185.042969 C 418.003906 184.335938 418.730469 183.691406 418.675781 183.007812 C 418.617188 182.222656 417.824219 182.203125 417.761719 181.898438 C 417.683594 181.535156 418.535156 180.464844 418.496094 179.953125 C 418.433594 179.183594 417.9375 178.613281 417.601562 177.957031 C 417.386719 177.539062 417.609375 177.023438 418.0625 176.890625 C 419.96875 176.332031 422.097656 175.058594 420.519531 172.933594 C 419.152344 171.085938 416.089844 169.085938 414.46875 167.285156 C 414.390625 166.96875 413.804688 164.992188 413.265625 162.976562 L 413.574219 162.960938 C 413.613281 162.957031 413.648438 162.953125 413.683594 162.949219 C 413.691406 162.949219 413.695312 162.953125 413.703125 162.953125 L 414.683594 162.894531 C 416.300781 162.746094 418.417969 162.242188 418.828125 160.40625 C 419.226562 158.644531 417.230469 158.398438 416.253906 157.574219 C 415.78125 157.175781 415.386719 156.507812 414.992188 156.066406 C 411.382812 152 406.769531 147.519531 401.800781 145.070312 C 399.523438 143.945312 393.570312 142.871094 393.023438 142.726562 C 392.550781 142.601562 392.226562 142.246094 391.667969 142.324219 C 389.429688 142.644531 388.457031 143.050781 388.078125 143.171875 C 383.667969 144.578125 378.652344 147.722656 375.710938 151.269531 C 373.414062 154.035156 370.699219 159.183594 370.691406 163.316406 C 370.691406 163.542969 370.988281 163.746094 371 164.019531 C 371.039062 164.710938 370.480469 166.386719 370.332031 167.152344 C 369.53125 171.359375 372.449219 179.363281 373.949219 181.960938 C 374.355469 182.671875 375.449219 183.894531 375.644531 184.5625 C 375.832031 185.203125 376.472656 187.921875 376.640625 188.222656 C 376.898438 188.679688 378.15625 187.894531 378.496094 187.730469 C 379.257812 187.355469 380.824219 186.527344 382.488281 185.640625 C 384.03125 186.585938 386.0625 187.53125 386.550781 188.265625 C 387.414062 189.566406 387.253906 192.230469 387.699219 193.746094 C 385.96875 193.503906 384.167969 193.125 382.414062 193.027344 C 382.402344 193.027344 382.394531 193.023438 382.386719 193.023438 C 380.90625 192.945312 379.605469 193.988281 379.335938 195.445312 C 379.125 196.558594 378.9375 197.675781 379.222656 198.078125 C 379.222656 198.078125 375.566406 196.574219 367.960938 210.183594 C 367.679688 210.625 367.414062 211.074219 367.160156 211.523438 C 360.757812 222.8125 358.71875 237.75 354.761719 250.082031 C 354.738281 251.265625 355.53125 252.359375 356.609375 253.113281 C 357.601562 253.808594 358.839844 254.210938 359.898438 254.125 C 359.492188 258.78125 357.90625 278.011719 359.402344 280.113281 C 359.734375 280.816406 360.8125 281.1875 360.949219 281.585938 C 361.191406 282.265625 361.265625 282.640625 361.390625 283.195312 C 361.453125 283.492188 361.710938 283.710938 362.015625 283.726562 L 361.800781 293.984375 C 362.023438 302.121094 363.46875 310.148438 364.515625 318.210938 C 364.496094 318.714844 363.902344 318.542969 363.859375 319.03125 C 363.8125 319.5625 364.082031 320.128906 364.097656 320.679688 C 364.15625 322.632812 364.078125 324.597656 364.074219 326.554688 C 364.074219 327.296875 363.894531 328.027344 363.550781 328.683594 C 362.851562 330.035156 363.402344 330.332031 363.402344 330.332031 C 363.589844 330.589844 363.902344 330.765625 363.882812 331.226562 C 363.816406 332.730469 362.972656 336.859375 362.460938 338.574219 C 361.605469 341.417969 362.789062 348.808594 364.699219 351.207031 C 365.796875 352.589844 366.566406 351.980469 367.296875 352.417969 C 367.746094 352.6875 368.472656 353.386719 368.949219 354.296875 C 369.132812 354.652344 369.425781 354.898438 369.75 355.078125 L 369.75 531.445312 L 373.992188 531.445312 L 373.992188 357.164062 C 374.4375 357.277344 375.089844 357.21875 376.183594 356.84375 C 376.890625 357 377.628906 362.425781 380.527344 360.941406 C 382.726562 359.808594 381.144531 356.730469 381.269531 355.269531 C 381.3125 354.785156 381.933594 354.746094 382.160156 354.292969 C 382.453125 353.699219 382.679688 352.03125 382.839844 350.246094 L 382.882812 350.214844 L 382.992188 350.109375 C 385.347656 347.84375 387.699219 344.839844 390.007812 341.140625 C 390.339844 340.691406 390.789062 339.964844 391.382812 338.882812 C 391.492188 338.683594 391.609375 338.46875 391.730469 338.242188 C 392.230469 337.363281 392.722656 336.453125 393.214844 335.511719 C 392.933594 338.402344 392.6875 341.785156 392.996094 342.558594 C 391.535156 344.304688 391.464844 346.441406 391.632812 348.644531 C 391.738281 349.972656 392.296875 351.210938 392.4375 352.398438 C 392.835938 355.734375 391.53125 355.410156 391.824219 359.078125 C 391.933594 360.5 392.25 364.921875 392.246094 365.394531 C 392.234375 366.746094 391.324219 369.714844 391.070312 371.277344 C 389.84375 378.8125 388.121094 386.9375 387.3125 394.441406 C 386.992188 397.390625 386.757812 399.832031 388.285156 402.523438 C 390.972656 407.265625 397.636719 407.277344 400.5 402.65625 C 402.144531 400.003906 401.976562 397.203125 401.777344 394.207031 C 401.128906 384.582031 399.175781 374.933594 398.78125 365.320312 C 399.945312 361.371094 398.308594 352.566406 398.253906 352.15625 C 398.101562 351.027344 399.230469 347.730469 399.300781 346.171875 C 399.335938 345.390625 399.359375 344.78125 399.089844 344.210938 C 400.148438 342.785156 401.96875 340.078125 403.847656 336.101562 C 408.242188 326.804688 409.976562 319.902344 410.65625 315.746094 C 411.847656 316.09375 413.453125 316.613281 414.222656 316.867188 C 414.597656 316.988281 414.902344 317.253906 415.078125 317.605469 C 415.203125 317.859375 415.304688 318.132812 415.367188 318.328125 L 415.476562 318.589844 C 415.675781 318.957031 416.957031 325.851562 419.3125 327.242188 C 419.511719 327.359375 420.179688 327.515625 421.152344 327.695312 L 428.125 328.753906 C 429.425781 328.929688 430.738281 329.101562 431.953125 329.257812 L 431.953125 531.445312 L 436.347656 531.445312 L 436.347656 329.804688 C 436.933594 329.878906 437.347656 329.925781 437.527344 329.949219 C 438.050781 330.066406 439.585938 330.15625 439.679688 330.15625 C 441.601562 330.1875 444.921875 330.320312 446.1875 330.195312 C 446.246094 330.191406 446.308594 330.183594 446.375 330.179688 C 449.027344 330.015625 450.730469 325.636719 450.730469 325.636719 C 450.769531 325.613281 450.777344 325.515625 450.757812 325.371094 L 451.898438 325.695312 C 451.816406 331.683594 452.539062 331.550781 452.59375 334.117188 C 452.640625 334.785156 452.753906 335.765625 452.84375 336.496094 C 452.90625 337.011719 453.421875 337.34375 453.917969 337.191406 L 454.699219 336.953125 L 455.710938 336.605469 C 456.074219 336.480469 456.304688 336.125 456.273438 335.738281 L 455.410156 326.179688 C 456.765625 326.128906 462.082031 330.195312 479.976562 329.878906 C 482.574219 329.835938 485.492188 330.019531 487.972656 330.375 C 488.722656 330.480469 489.324219 330.625 489.890625 330.800781 L 495.074219 328.75 C 495.339844 329.25 495.574219 329.707031 495.75 330.089844 C 497.019531 332.878906 495.042969 338.363281 495.589844 342.066406 C 496.074219 345.347656 498.699219 348.273438 498.917969 350.679688 C 499.167969 353.4375 503.855469 375.832031 503.878906 377.21875 C 503.886719 377.710938 504.050781 379.503906 504.292969 380.960938 C 504.480469 382.09375 505.5625 382.851562 506.691406 382.640625 L 508.816406 382.246094 C 509.492188 382.601562 510.757812 388.824219 510.300781 389.152344 C 507.378906 389.039062 505.863281 392.105469 507.207031 394.613281 C 507.453125 395.070312 507.875 395.367188 508.074219 395.796875 C 508.222656 396.128906 508.796875 402.527344 508.746094 402.96875 C 508.667969 403.644531 508.234375 404 508.183594 404.84375 C 508.140625 405.527344 508.460938 407.460938 508.605469 408.207031 C 509.320312 411.832031 509.292969 413.339844 512.84375 412.871094 C 513.785156 412.746094 515.328125 412.691406 515.261719 412.027344 L 515.273438 412.085938 C 515.320312 412.34375 515.5625 412.511719 515.816406 412.46875 L 518.851562 411.929688 C 519.105469 411.886719 519.277344 411.640625 519.230469 411.386719 L 519.183594 411.125 C 519.175781 411.074219 519.210938 411.023438 519.261719 411.015625 L 519.289062 411.011719 C 519.339844 411.003906 519.386719 411.039062 519.394531 411.085938 L 519.441406 411.355469 C 519.488281 411.609375 519.730469 411.78125 519.988281 411.734375 L 523.019531 411.195312 C 523.277344 411.152344 523.445312 410.910156 523.402344 410.652344 L 523.332031 410.265625 C 523.324219 410.214844 523.359375 410.164062 523.410156 410.15625 C 523.460938 410.148438 523.507812 410.183594 523.515625 410.230469 L 523.585938 410.628906 C 523.632812 410.886719 523.875 411.054688 524.132812 411.011719 L 527.164062 410.472656 C 527.421875 410.429688 527.589844 410.183594 527.542969 409.929688 L 527.242188 408.230469 C 528.046875 407.882812 533.492188 406.546875 534.53125 407.875 C 534.855469 408.285156 535.144531 408.324219 535.347656 408.292969 L 535.699219 408.246094 C 535.761719 408.238281 535.824219 408.230469 535.890625 408.21875 L 539.195312 407.753906 C 539.515625 407.707031 539.742188 407.410156 539.695312 407.085938 L 539.527344 406.035156 C 539.503906 405.871094 539.613281 405.71875 539.777344 405.6875 L 539.78125 405.6875 C 539.953125 405.65625 540.113281 405.777344 540.136719 405.945312 L 540.273438 406.894531 C 540.316406 407.214844 540.617188 407.441406 540.9375 407.394531 L 544.785156 406.855469 C 545.105469 406.808594 545.332031 406.511719 545.285156 406.1875 C 545.285156 406.1875 545.175781 405.394531 545.113281 404.949219 C 545.089844 404.78125 545.195312 404.621094 545.363281 404.582031 L 545.371094 404.582031 C 545.550781 404.539062 545.722656 404.652344 545.757812 404.832031 L 546 406.027344 C 546.113281 406.691406 546.605469 406.578125 546.925781 406.511719 L 550.011719 405.566406 C 550.332031 405.5 550.535156 405.191406 550.472656 404.871094 L 550.210938 403.59375 C 550.171875 403.398438 550.242188 403.304688 550.347656 403.25 C 550.351562 403.246094 550.355469 403.246094 550.359375 403.246094 C 550.527344 403.195312 550.703125 403.277344 550.78125 403.429688 L 551.113281 404.105469 C 551.308594 404.605469 551.871094 404.851562 552.371094 404.65625 L 554.898438 403.78125 C 555.34375 403.605469 555.585938 403.132812 555.492188 402.679688 C 555.484375 402.640625 555.523438 402.617188 555.554688 402.636719 C 555.832031 402.839844 556.710938 403.085938 558.996094 401.226562 C 559.292969 400.988281 559.453125 400.617188 559.421875 400.234375 L 559.398438 399.925781 C 559.839844 400.179688 560.390625 400.121094 560.769531 399.785156 C 560.859375 399.703125 560.953125 399.617188 561.046875 399.53125 C 561.769531 398.875 562.363281 398.085938 562.859375 397.484375 C 562.863281 397.476562 562.867188 397.472656 562.871094 397.46875 C 563.636719 396.511719 563.929688 395.261719 563.726562 394.054688 C 563.148438 390.597656 560.175781 388.042969 556.667969 388.007812 C 553.617188 387.980469 550.488281 388.339844 548.027344 388.519531 C 546.675781 388.617188 541.644531 388.019531 540.542969 387.445312 C 539.460938 386.878906 535.5625 385.414062 534.988281 385.210938 C 534.214844 384.9375 532.9375 383.5 532.183594 383.320312 C 531.886719 383.25 531.609375 383.582031 531.316406 383.5 C 529.347656 382.949219 527.324219 378.394531 526.585938 376.21875 C 529.09375 375.199219 537.082031 372.832031 537.519531 372.046875 L 537.621094 371.359375 C 534.546875 356.175781 530.050781 341.289062 525.589844 326.464844 C 524.710938 323.546875 523.621094 320.722656 522.757812 317.816406 L 522.867188 317.773438 C 523.738281 318.421875 530.042969 324.019531 530.519531 324.613281 C 530.957031 325.160156 531.15625 326.890625 531.480469 327.582031 C 532.460938 329.683594 535.351562 332.222656 537.234375 333.574219 C 538.132812 334.21875 540.175781 335.195312 540.789062 335.820312 C 541.402344 336.453125 541.59375 338.105469 541.9375 338.871094 C 544.324219 344.191406 547.316406 350.773438 551.046875 355.199219 L 551.007812 355.253906 C 551.574219 356.265625 552.863281 356.617188 553.867188 356.027344 L 558.097656 353.160156 C 558.628906 354.566406 559.007812 355.882812 558.824219 356.066406 C 555.9375 356.445312 554.960938 359.714844 556.710938 361.949219 C 557.027344 362.355469 557.492188 362.578125 557.757812 362.96875 C 557.960938 363.265625 559.605469 369.457031 559.628906 369.898438 C 559.667969 370.574219 559.300781 370.996094 559.394531 371.835938 C 559.46875 372.511719 560.105469 374.359375 560.375 375.066406 C 561.6875 378.507812 561.917969 379.988281 565.324219 378.933594 C 566.230469 378.652344 567.734375 378.339844 567.558594 377.695312 L 567.578125 377.753906 C 567.667969 377.996094 567.933594 378.121094 568.175781 378.035156 L 571.066406 376.996094 C 571.308594 376.90625 571.4375 376.640625 571.347656 376.398438 L 571.257812 376.148438 C 571.242188 376.097656 571.265625 376.042969 571.316406 376.027344 L 571.34375 376.019531 C 571.390625 376.003906 571.445312 376.027344 571.460938 376.074219 L 571.550781 376.328125 C 571.640625 376.574219 571.90625 376.699219 572.148438 376.613281 L 575.039062 375.570312 C 575.28125 375.484375 575.410156 375.214844 575.320312 374.972656 L 575.1875 374.601562 C 575.171875 374.554688 575.195312 374.5 575.246094 374.484375 C 575.292969 374.464844 575.347656 374.492188 575.363281 374.539062 L 575.5 374.917969 C 575.585938 375.160156 575.855469 375.289062 576.097656 375.199219 L 578.988281 374.160156 C 579.230469 374.070312 579.355469 373.804688 579.269531 373.5625 L 578.6875 371.945312 C 579.417969 371.464844 584.539062 369.234375 585.785156 370.363281 C 586.171875 370.710938 586.464844 370.703125 586.660156 370.636719 L 586.992188 370.53125 C 587.054688 370.515625 587.113281 370.496094 587.179688 370.472656 L 590.34375 369.457031 C 590.652344 369.359375 590.824219 369.027344 590.726562 368.71875 L 590.382812 367.714844 C 590.328125 367.558594 590.410156 367.390625 590.566406 367.332031 L 590.574219 367.332031 C 590.734375 367.273438 590.914062 367.363281 590.964844 367.527344 L 591.257812 368.433594 C 591.355469 368.742188 591.6875 368.914062 591.996094 368.8125 L 595.683594 367.632812 C 595.992188 367.535156 596.164062 367.203125 596.0625 366.894531 C 596.0625 366.894531 595.820312 366.132812 595.683594 365.707031 C 595.632812 365.542969 595.710938 365.371094 595.871094 365.304688 L 595.878906 365.300781 C 596.042969 365.230469 596.234375 365.3125 596.300781 365.480469 L 596.742188 366.613281 C 596.960938 367.246094 597.425781 367.050781 597.730469 366.933594 L 600.601562 365.488281 C 600.902344 365.367188 601.054688 365.027344 600.933594 364.722656 L 600.464844 363.515625 C 600.390625 363.328125 600.445312 363.226562 600.542969 363.152344 C 600.542969 363.152344 600.546875 363.148438 600.554688 363.148438 C 600.707031 363.070312 600.894531 363.121094 600.996094 363.257812 L 601.4375 363.867188 C 601.714844 364.324219 602.308594 364.46875 602.765625 364.195312 L 605.097656 362.910156 C 605.507812 362.660156 605.667969 362.15625 605.496094 361.722656 C 605.484375 361.691406 605.519531 361.65625 605.554688 361.675781 C 605.859375 361.824219 606.765625 361.921875 608.695312 359.710938 C 608.945312 359.421875 609.039062 359.03125 608.945312 358.660156 L 608.871094 358.363281 C 609.347656 358.539062 609.878906 358.386719 610.191406 357.992188 C 610.269531 357.898438 610.347656 357.796875 610.425781 357.695312 C 611.019531 356.929688 611.472656 356.054688 611.855469 355.378906 C 611.859375 355.375 611.863281 355.367188 611.867188 355.363281 C 612.457031 354.296875 612.53125 353.019531 612.128906 351.867188 Z M 391.730469 276.890625 L 395.941406 286.257812 C 394.503906 288.226562 390.054688 292.773438 387.589844 292.726562 C 386.0625 292.695312 384.769531 291.160156 384.472656 289.742188 C 383.460938 284.84375 388.078125 279.582031 391.730469 276.890625 Z M 398.617188 398.703125 C 397.519531 403.640625 391.875 404.78125 390.484375 399.699219 C 389.714844 396.898438 391.007812 391.117188 391.484375 388.050781 C 392.425781 381.980469 393.363281 373.621094 394.933594 367.890625 C 395.011719 367.605469 394.960938 367.25 395.355469 367.175781 C 396.242188 372.625 397.019531 378.144531 397.632812 383.640625 C 398.046875 387.339844 399.339844 395.457031 398.617188 398.703125 Z M 393.703125 350.613281 L 393.859375 345.097656 L 397.347656 345.335938 C 397.359375 345.835938 397.234375 347.652344 397.195312 347.996094 C 397.132812 348.507812 396.878906 350.453125 396.46875 350.59375 C 396.007812 350.75 394.449219 350.203125 393.703125 350.613281 Z M 398.484375 328.652344 C 398.113281 328.710938 397.695312 328.714844 397.21875 328.660156 C 397.121094 328.5625 397.144531 328.113281 397.238281 327.507812 C 398.78125 324.433594 400.410156 321.15625 401.945312 318.054688 C 401.085938 320.988281 399.816406 324.808594 398.484375 328.652344 Z M 399.265625 309.671875 C 397.863281 311.101562 396.660156 312.886719 397.457031 314.84375 C 392.792969 327.726562 388 337.378906 383.179688 343.542969 C 383.21875 338.664062 382.5625 337.660156 380.410156 332.734375 C 379.851562 331.460938 379.4375 329.9375 378.832031 328.722656 C 378.597656 328.253906 378.078125 328.046875 377.96875 327.515625 C 377.785156 326.621094 377.71875 325.699219 377.710938 324.761719 C 377.746094 323.109375 377.84375 318.820312 377.804688 318.253906 C 377.765625 317.648438 376.941406 317.628906 376.941406 317.628906 C 376.785156 317.359375 376.773438 316.980469 376.722656 316.335938 C 376.425781 312.761719 376.347656 307.910156 376.503906 304.320312 C 376.691406 299.953125 377.730469 295.628906 377.960938 291.28125 C 378.089844 288.824219 377.878906 286.375 377.757812 283.933594 C 378.203125 283.96875 378.625 283.722656 378.820312 283.316406 C 379.300781 282.3125 379.621094 281.058594 379.859375 280.339844 C 379.96875 280.003906 380.8125 279.769531 381.179688 279.386719 C 381.914062 278.621094 382.058594 277.429688 381.847656 276.421875 C 381.679688 275.605469 380.679688 274.945312 380.648438 274.285156 C 380.613281 273.539062 381.875 273.125 381.4375 271.652344 C 381.347656 271.347656 380.902344 271.039062 380.710938 270.640625 C 380.578125 270.371094 380.773438 270.054688 381.074219 270.050781 C 381.683594 270.039062 382.230469 269.671875 382.472656 269.113281 L 383.007812 267.875 C 383.335938 267.113281 384.371094 267.015625 384.839844 267.699219 L 388.910156 273.65625 C 384.304688 278.117188 379.667969 282.804688 380.671875 289.8125 C 381.261719 293.917969 384.777344 298.03125 389.226562 297.578125 C 393.148438 297.175781 395.984375 293.492188 399.183594 291.59375 C 399.933594 293.75 401.644531 295.488281 402.640625 297.460938 C 402.703125 297.589844 402.796875 297.839844 402.902344 298.140625 C 401.699219 302.203125 400.488281 306.050781 399.265625 309.675781 Z M 408.847656 306.058594 C 408.632812 305.722656 408.921875 300.621094 409.015625 299.765625 C 409.050781 299.457031 409.0625 299.125 409.4375 299.050781 C 409.488281 301.195312 411.015625 302.644531 412.058594 304.328125 C 411.492188 305.980469 410.664062 306.832031 408.847656 306.058594 Z M 435.117188 250.175781 C 434.65625 250.226562 434.566406 250.226562 434.328125 249.828125 C 434.03125 249.328125 432.871094 246.070312 432.722656 245.425781 C 432.644531 245.078125 432.597656 244.738281 432.632812 244.378906 C 436.4375 244.4375 435.183594 247.558594 435.117188 250.175781 Z M 459.652344 254.730469 C 459.335938 254.71875 459.429688 254.378906 459.492188 254.160156 C 459.765625 253.214844 462.519531 250.234375 463.386719 249.5625 C 463.78125 249.261719 464.1875 248.882812 464.730469 248.9375 C 463.96875 249.972656 460.753906 254.761719 459.652344 254.730469 Z M 464.890625 253.097656 L 467.011719 249.972656 C 467.542969 249.910156 467.339844 249.976562 467.425781 250.273438 C 467.730469 251.285156 467.59375 252.164062 468.25 253.117188 C 467.066406 253.023438 465.890625 253 464.890625 253.097656 Z M 470.300781 221.230469 C 469.921875 221.246094 469 221.527344 469.003906 223.925781 C 469.011719 226.933594 469.746094 226.019531 470.066406 227.035156 C 470.226562 227.539062 470.175781 229.488281 470.089844 231.242188 C 470.007812 232.945312 469.253906 234.539062 468.003906 235.695312 C 467.050781 236.578125 466.199219 237.675781 465.90625 238.621094 C 465.21875 240.832031 465.785156 243.359375 465.464844 245.636719 C 460.246094 246.757812 457.859375 252.160156 456.027344 256.597656 C 455.644531 256.644531 452.507812 261.863281 450.78125 262.582031 C 449.226562 263.226562 444.378906 263.414062 443.664062 263.609375 C 443.585938 263.632812 443.5 263.648438 443.40625 263.664062 C 442.085938 263.878906 440.753906 263.316406 439.976562 262.230469 C 439.039062 260.925781 437.851562 259.863281 436.851562 258.5625 C 436.925781 257.769531 437.949219 257.210938 438.136719 256.609375 C 438.332031 255.960938 438.027344 255.671875 438.054688 255.25 C 438.09375 254.664062 438.320312 254.152344 438.59375 253.660156 C 439.234375 252.492188 438.917969 251.03125 437.835938 250.253906 C 437.953125 247.273438 437.773438 244.738281 436.5625 242.003906 C 438.816406 242.804688 441.222656 243.09375 443.601562 242.855469 C 447.980469 242.414062 454.371094 241.539062 455.140625 241.320312 C 455.960938 241.082031 457.59375 241.339844 458.589844 241.25 C 460.644531 241.058594 461.371094 240.78125 462.28125 238.933594 C 463.382812 236.699219 467.699219 225.964844 467.839844 223.980469 C 468.007812 221.636719 467.191406 219.195312 467.929688 216.625 C 468.207031 215.65625 468.859375 215.042969 469.226562 214.195312 C 469.371094 213.863281 469.941406 210.90625 470.527344 207.753906 Z M 477.660156 255.359375 C 476.039062 253.707031 474.355469 251.628906 474.726562 249.296875 C 474.941406 247.953125 475.613281 248.144531 476.316406 248.933594 C 476.933594 249.628906 477.324219 250.503906 477.457031 251.425781 C 477.582031 252.253906 477.691406 253.53125 477.660156 255.359375 Z M 477.660156 255.359375 " fill-opacity="1" fill-rule="nonzero"/></g></svg>