<svg xmlns="http://www.w3.org/2000/svg" xmlns:xlink="http://www.w3.org/1999/xlink" width="500" zoomAndPan="magnify" viewBox="0 0 375 374.999991" height="500" preserveAspectRatio="xMidYMid meet" version="1.0"><defs><clipPath id="3d24ef100c"><path d="M 0 0 L 375 0 L 375 37.5 L 0 37.5 Z M 0 0 " clip-rule="nonzero"/></clipPath><clipPath id="0169683cb0"><path d="M 83.226562 0 L 312.726562 0 L 312.726562 375 L 83.226562 375 Z M 83.226562 0 " clip-rule="nonzero"/></clipPath></defs><g clip-path="url(#3d24ef100c)"><path fill="#000000" d="M 0 0 L 375 0 L 375 37.5 L 0 37.5 Z M 0 0 " fill-opacity="1" fill-rule="nonzero"/></g><g clip-path="url(#0169683cb0)"><path fill="#ffffff" d="M 312.589844 216.425781 C 311.5625 213.484375 308.574219 211.695312 305.503906 212.191406 C 302.828125 212.625 300.144531 213.410156 298.015625 213.9375 C 296.847656 214.226562 292.355469 214.460938 291.304688 214.125 C 290.273438 213.789062 286.640625 213.09375 286.109375 213.003906 C 285.386719 212.878906 284.054688 211.8125 283.367188 211.769531 C 283.097656 211.753906 282.902344 212.082031 282.636719 212.054688 C 281.109375 211.898438 279.125 209.253906 277.957031 207.351562 L 278.898438 206.636719 L 281.667969 204.785156 C 282.359375 203.09375 260.371094 174.339844 260.371094 174.339844 C 260.371094 174.339844 257.3125 169.902344 256.164062 168.628906 C 254.714844 166.910156 252.769531 165.226562 251.234375 163.492188 C 247.925781 159.753906 242.402344 151.984375 237.632812 150.675781 C 237.449219 150.625 237.261719 150.585938 237.066406 150.554688 C 237.066406 150.554688 232.585938 149.542969 230.097656 149.648438 C 228.242188 149.726562 212.371094 151.136719 203.285156 152.070312 L 203.285156 152.078125 L 200.734375 152.339844 L 195.363281 128.976562 C 195.144531 126.917969 194.53125 123.863281 192.8125 122.675781 C 192.269531 122.296875 191.8125 122.007812 191.429688 121.792969 C 191.050781 121.578125 190.820312 121.179688 190.820312 120.746094 C 190.820312 120.742188 190.820312 120.738281 190.820312 120.734375 C 190.824219 118.558594 192.234375 115.644531 191.433594 113.40625 C 191.410156 113.34375 191.382812 113.269531 191.351562 113.191406 C 190.800781 111.863281 190.507812 110.449219 190.511719 109.015625 C 190.515625 107.445312 190.558594 105.710938 190.753906 105.1875 C 191.085938 104.300781 191.695312 105.148438 191.84375 102.472656 C 191.949219 100.558594 191.304688 100.125 190.929688 100.03125 L 191.234375 68.890625 C 194.234375 67.285156 198.574219 63.8125 197.980469 61.691406 C 197.851562 61.222656 196.992188 60.84375 196.925781 60.589844 C 196.800781 60.121094 197.585938 58.386719 196.632812 57.167969 C 196.300781 56.746094 196.148438 56.394531 196.308594 56 C 196.855469 54.664062 196.488281 52.859375 195.820312 52.507812 C 195.910156 51.441406 196.59375 49.917969 196.601562 49.601562 C 196.640625 48.246094 195.578125 47.394531 194.597656 46.480469 C 193.648438 45.601562 192.179688 45.007812 191.472656 44.277344 L 191.921875 -1.457031 L 187.90625 -1.457031 L 187.113281 45.902344 C 186.589844 47.042969 185.9375 48.769531 185.578125 49.417969 C 183.886719 52.484375 182.894531 53.496094 182.101562 57.199219 C 181.441406 60.296875 182.035156 63.425781 180.957031 66.203125 C 180.648438 67 180.113281 67.765625 179.789062 68.558594 C 179.691406 69.234375 180.367188 69.839844 180.871094 70.539062 C 181.023438 70.75 179.882812 75.054688 179.484375 76.542969 C 178.21875 81.273438 176.636719 86.042969 174.625 90.507812 C 173.0625 93.976562 170.886719 97.25 169.792969 100.902344 C 169.078125 101.054688 165.085938 99.769531 163.105469 99.132812 C 162.726562 99.011719 162.421875 98.910156 162.226562 98.851562 C 159.609375 97.992188 157.125 96.984375 156.136719 96.570312 C 156.136719 96.539062 156.140625 96.511719 156.140625 96.480469 C 156.140625 94.402344 151.046875 93.464844 148.675781 92.601562 C 148.222656 92.4375 147.539062 92.171875 146.707031 91.828125 L 159.519531 -1.457031 L 155.601562 -1.457031 C 155.601562 -1.457031 144.019531 82.359375 142.8125 90.148438 C 139.671875 88.734375 136.179688 87.019531 134.300781 85.707031 C 131.421875 83.6875 131.089844 84.015625 131.054688 84.15625 C 131.179688 82.558594 132.441406 77.28125 133.359375 76.179688 C 134.914062 74.320312 142.550781 75.125 141.292969 70.261719 C 141.058594 69.351562 139.796875 68.191406 139.71875 67.769531 C 139.601562 67.136719 140.246094 66.566406 140.199219 65.957031 C 140.148438 65.253906 139.441406 65.238281 139.382812 64.964844 C 139.316406 64.644531 140.074219 63.691406 140.039062 63.234375 C 139.984375 62.546875 139.542969 62.039062 139.242188 61.453125 C 139.050781 61.082031 139.25 60.625 139.652344 60.503906 C 141.351562 60.007812 143.246094 58.871094 141.84375 56.976562 C 140.625 55.332031 137.894531 53.550781 136.453125 51.945312 C 136.382812 51.664062 135.859375 49.902344 135.378906 48.105469 L 135.652344 48.089844 C 135.6875 48.085938 135.71875 48.082031 135.753906 48.082031 C 135.757812 48.082031 135.761719 48.082031 135.765625 48.082031 L 136.644531 48.03125 C 138.085938 47.898438 139.96875 47.453125 140.335938 45.816406 C 140.691406 44.242188 138.910156 44.027344 138.042969 43.289062 C 137.621094 42.933594 137.269531 42.339844 136.917969 41.945312 C 133.703125 38.324219 129.589844 34.328125 125.164062 32.148438 C 123.132812 31.148438 117.828125 30.1875 117.339844 30.0625 C 116.921875 29.949219 116.628906 29.632812 116.132812 29.703125 C 114.140625 29.984375 113.273438 30.351562 112.933594 30.457031 C 109.003906 31.710938 104.535156 34.511719 101.914062 37.671875 C 99.867188 40.140625 97.445312 44.726562 97.441406 48.410156 C 97.441406 48.609375 97.703125 48.789062 97.71875 49.035156 C 97.75 49.648438 97.25 51.144531 97.121094 51.824219 C 96.40625 55.578125 99.007812 62.707031 100.34375 65.023438 C 100.707031 65.65625 101.679688 66.746094 101.855469 67.339844 C 102.019531 67.910156 102.589844 70.332031 102.742188 70.601562 C 102.972656 71.007812 104.09375 70.308594 104.394531 70.164062 C 105.074219 69.832031 106.472656 69.09375 107.953125 68.300781 C 109.328125 69.140625 111.136719 69.984375 111.574219 70.640625 C 112.339844 71.800781 112.199219 74.175781 112.597656 75.523438 C 111.050781 75.308594 109.449219 74.972656 107.886719 74.882812 C 107.878906 74.882812 107.867188 74.882812 107.859375 74.878906 C 106.542969 74.808594 105.382812 75.742188 105.140625 77.039062 C 104.957031 78.03125 104.789062 79.023438 105.042969 79.382812 C 105.042969 79.382812 101.785156 78.042969 95.007812 90.171875 C 94.757812 90.566406 94.519531 90.964844 94.292969 91.363281 C 88.585938 101.425781 86.773438 114.738281 83.246094 125.726562 C 83.222656 126.78125 83.929688 127.757812 84.890625 128.429688 C 85.777344 129.046875 86.878906 129.40625 87.824219 129.328125 C 87.460938 133.476562 86.046875 150.613281 87.378906 152.488281 C 87.675781 153.113281 88.636719 153.445312 88.761719 153.796875 C 88.976562 154.40625 89.042969 154.738281 89.152344 155.230469 C 89.207031 155.5 89.4375 155.691406 89.710938 155.707031 L 89.519531 164.847656 C 89.714844 172.097656 91.003906 179.25 91.9375 186.4375 C 91.917969 186.886719 91.390625 186.730469 91.351562 187.167969 C 91.308594 187.640625 91.550781 188.144531 91.566406 188.636719 C 91.613281 190.378906 91.546875 192.128906 91.542969 193.871094 C 91.542969 194.53125 91.382812 195.183594 91.078125 195.769531 C 90.453125 196.972656 90.945312 197.238281 90.945312 197.238281 C 91.113281 197.464844 91.390625 197.625 91.371094 198.035156 C 91.3125 199.375 90.5625 203.054688 90.105469 204.582031 C 89.34375 207.117188 90.398438 213.703125 92.097656 215.84375 C 93.078125 217.074219 93.765625 216.527344 94.414062 216.917969 C 94.816406 217.160156 95.460938 217.78125 95.886719 218.59375 C 96.050781 218.910156 96.3125 219.132812 96.601562 219.289062 L 96.601562 376.453125 L 100.382812 376.453125 L 100.382812 221.148438 C 100.777344 221.25 101.359375 221.199219 102.332031 220.863281 C 102.964844 221.003906 103.621094 225.839844 106.203125 224.511719 C 108.164062 223.507812 106.753906 220.761719 106.867188 219.460938 C 106.902344 219.027344 107.457031 218.996094 107.660156 218.589844 C 107.921875 218.0625 108.121094 216.574219 108.265625 214.984375 L 108.304688 214.957031 L 108.402344 214.863281 C 110.503906 212.84375 112.59375 210.164062 114.652344 206.871094 C 114.949219 206.46875 115.347656 205.824219 115.878906 204.859375 C 115.976562 204.679688 116.082031 204.488281 116.191406 204.285156 C 116.632812 203.503906 117.074219 202.691406 117.511719 201.855469 C 117.261719 204.429688 117.042969 207.445312 117.316406 208.132812 C 116.011719 209.6875 115.953125 211.59375 116.101562 213.558594 C 116.195312 214.738281 116.691406 215.84375 116.820312 216.902344 C 117.175781 219.875 116.011719 219.585938 116.269531 222.855469 C 116.371094 224.121094 116.652344 228.0625 116.648438 228.480469 C 116.636719 229.6875 115.828125 232.332031 115.601562 233.726562 C 114.507812 240.4375 112.972656 247.679688 112.25 254.367188 C 111.96875 256.996094 111.757812 259.167969 113.117188 261.566406 C 115.511719 265.792969 121.453125 265.804688 124 261.6875 C 125.46875 259.324219 125.320312 256.828125 125.140625 254.15625 C 124.566406 245.582031 122.824219 236.980469 122.46875 228.417969 C 123.511719 224.898438 122.050781 217.050781 122 216.6875 C 121.867188 215.679688 122.871094 212.742188 122.933594 211.351562 C 122.964844 210.660156 122.988281 210.113281 122.746094 209.605469 C 123.6875 208.335938 125.3125 205.921875 126.988281 202.378906 C 130.902344 194.09375 132.449219 187.941406 133.054688 184.242188 C 134.117188 184.546875 135.542969 185.011719 136.234375 185.238281 C 136.566406 185.347656 136.839844 185.582031 136.992188 185.894531 C 137.105469 186.125 137.195312 186.367188 137.253906 186.542969 L 137.347656 186.773438 C 137.527344 187.101562 138.667969 193.246094 140.769531 194.484375 C 140.945312 194.585938 141.542969 194.726562 142.40625 194.886719 L 148.617188 195.832031 C 149.78125 195.988281 150.949219 196.140625 152.03125 196.28125 L 152.03125 376.453125 L 155.949219 376.453125 L 155.949219 196.769531 C 156.46875 196.832031 156.839844 196.875 157 196.898438 C 157.464844 197 158.832031 197.082031 158.914062 197.082031 C 160.628906 197.109375 163.585938 197.226562 164.714844 197.117188 C 164.769531 197.109375 164.824219 197.105469 164.882812 197.101562 C 167.246094 196.957031 168.761719 193.054688 168.761719 193.054688 C 168.800781 193.035156 168.804688 192.945312 168.789062 192.816406 L 169.804688 193.105469 C 169.734375 198.441406 170.378906 198.324219 170.425781 200.609375 C 170.46875 201.207031 170.570312 202.078125 170.648438 202.730469 C 170.703125 203.191406 171.164062 203.488281 171.605469 203.351562 L 172.300781 203.140625 L 173.203125 202.828125 C 173.527344 202.71875 173.734375 202.398438 173.703125 202.058594 L 172.933594 193.535156 C 174.144531 193.492188 178.878906 197.117188 194.824219 196.835938 C 197.140625 196.796875 199.742188 196.957031 201.953125 197.277344 C 202.617188 197.371094 203.15625 197.5 203.660156 197.65625 L 208.28125 195.828125 C 208.515625 196.273438 208.726562 196.679688 208.882812 197.023438 C 210.011719 199.507812 208.25 204.394531 208.738281 207.695312 C 209.171875 210.621094 211.511719 213.226562 211.707031 215.371094 C 211.925781 217.828125 216.105469 237.78125 216.125 239.019531 C 216.132812 239.457031 216.28125 241.054688 216.496094 242.355469 C 216.664062 243.363281 217.628906 244.039062 218.632812 243.851562 L 220.527344 243.496094 C 221.128906 243.816406 222.257812 249.363281 221.847656 249.65625 C 219.246094 249.550781 217.890625 252.285156 219.09375 254.519531 C 219.3125 254.925781 219.6875 255.191406 219.863281 255.578125 C 219.996094 255.871094 220.507812 261.574219 220.460938 261.96875 C 220.394531 262.570312 220.007812 262.886719 219.960938 263.636719 C 219.925781 264.246094 220.207031 265.96875 220.335938 266.632812 C 220.972656 269.863281 220.949219 271.207031 224.113281 270.789062 C 224.953125 270.679688 226.328125 270.632812 226.269531 270.039062 L 226.28125 270.09375 C 226.320312 270.320312 226.535156 270.472656 226.765625 270.429688 L 229.46875 269.953125 C 229.695312 269.910156 229.847656 269.695312 229.804688 269.46875 L 229.765625 269.234375 C 229.757812 269.1875 229.789062 269.144531 229.832031 269.136719 L 229.859375 269.132812 C 229.902344 269.125 229.945312 269.15625 229.953125 269.199219 L 229.996094 269.4375 C 230.035156 269.667969 230.253906 269.816406 230.480469 269.777344 L 233.183594 269.296875 C 233.410156 269.257812 233.5625 269.042969 233.523438 268.8125 L 233.460938 268.46875 C 233.453125 268.421875 233.484375 268.378906 233.527344 268.371094 C 233.527344 268.371094 233.53125 268.371094 233.53125 268.371094 C 233.574219 268.363281 233.617188 268.394531 233.625 268.4375 L 233.6875 268.792969 C 233.726562 269.019531 233.945312 269.171875 234.171875 269.132812 L 236.875 268.652344 C 237.105469 268.613281 237.253906 268.394531 237.214844 268.167969 L 236.945312 266.65625 C 237.660156 266.34375 242.515625 265.15625 243.441406 266.335938 C 243.730469 266.703125 243.988281 266.738281 244.167969 266.710938 L 244.480469 266.667969 C 244.535156 266.660156 244.59375 266.652344 244.652344 266.644531 L 247.59375 266.230469 C 247.882812 266.1875 248.082031 265.921875 248.042969 265.632812 L 247.894531 264.699219 C 247.871094 264.550781 247.96875 264.414062 248.113281 264.390625 L 248.121094 264.390625 C 248.273438 264.363281 248.414062 264.46875 248.4375 264.621094 L 248.554688 265.460938 C 248.597656 265.75 248.863281 265.949219 249.152344 265.910156 L 252.578125 265.429688 C 252.863281 265.386719 253.066406 265.121094 253.023438 264.832031 C 253.023438 264.832031 252.925781 264.128906 252.871094 263.730469 C 252.847656 263.578125 252.945312 263.4375 253.09375 263.402344 L 253.101562 263.402344 C 253.257812 263.367188 253.414062 263.46875 253.445312 263.625 L 253.660156 264.691406 C 253.761719 265.28125 254.199219 265.179688 254.484375 265.121094 L 257.234375 264.28125 C 257.519531 264.222656 257.703125 263.945312 257.644531 263.660156 L 257.414062 262.523438 C 257.378906 262.347656 257.441406 262.265625 257.535156 262.214844 C 257.539062 262.214844 257.542969 262.214844 257.546875 262.210938 C 257.695312 262.167969 257.851562 262.238281 257.917969 262.378906 L 258.21875 262.980469 C 258.390625 263.421875 258.894531 263.640625 259.335938 263.46875 L 261.589844 262.691406 C 261.988281 262.535156 262.203125 262.113281 262.117188 261.707031 C 262.109375 261.675781 262.148438 261.652344 262.175781 261.671875 C 262.421875 261.851562 263.207031 262.070312 265.242188 260.414062 C 265.503906 260.199219 265.648438 259.867188 265.621094 259.53125 L 265.601562 259.253906 C 265.992188 259.480469 266.484375 259.429688 266.820312 259.128906 C 266.902344 259.054688 266.984375 258.980469 267.070312 258.902344 C 267.710938 258.316406 268.242188 257.613281 268.683594 257.078125 C 268.6875 257.074219 268.691406 257.070312 268.695312 257.0625 C 269.375 256.214844 269.636719 255.097656 269.457031 254.023438 C 268.941406 250.941406 266.292969 248.664062 263.167969 248.632812 C 260.449219 248.609375 257.660156 248.929688 255.464844 249.089844 C 254.261719 249.175781 249.777344 248.644531 248.796875 248.132812 C 247.832031 247.628906 244.359375 246.324219 243.847656 246.144531 C 243.15625 245.898438 242.019531 244.617188 241.347656 244.457031 C 241.082031 244.394531 240.835938 244.691406 240.578125 244.617188 C 238.820312 244.125 237.015625 240.070312 236.363281 238.128906 C 238.59375 237.222656 245.710938 235.109375 246.101562 234.410156 L 246.195312 233.800781 C 243.453125 220.265625 239.445312 207 235.472656 193.789062 C 234.6875 191.191406 233.71875 188.675781 232.949219 186.085938 L 233.046875 186.046875 C 233.824219 186.625 239.441406 191.613281 239.867188 192.140625 C 240.253906 192.628906 240.433594 194.171875 240.722656 194.789062 C 241.59375 196.660156 244.171875 198.921875 245.851562 200.128906 C 246.648438 200.703125 248.472656 201.570312 249.015625 202.128906 C 249.5625 202.691406 249.734375 204.164062 250.042969 204.847656 C 252.167969 209.589844 254.835938 215.453125 258.15625 219.398438 L 258.121094 219.445312 C 258.628906 220.347656 259.777344 220.660156 260.671875 220.136719 L 264.441406 217.582031 C 264.914062 218.832031 265.25 220.007812 265.089844 220.171875 C 262.515625 220.507812 261.648438 223.421875 263.203125 225.410156 C 263.488281 225.777344 263.902344 225.972656 264.136719 226.320312 C 264.320312 226.585938 265.785156 232.101562 265.804688 232.496094 C 265.839844 233.097656 265.515625 233.476562 265.59375 234.222656 C 265.660156 234.828125 266.230469 236.472656 266.46875 237.101562 C 267.640625 240.167969 267.84375 241.488281 270.878906 240.546875 C 271.6875 240.296875 273.027344 240.019531 272.871094 239.445312 L 272.890625 239.496094 C 272.96875 239.710938 273.207031 239.824219 273.421875 239.746094 L 275.996094 238.820312 C 276.214844 238.742188 276.328125 238.503906 276.25 238.289062 L 276.167969 238.066406 C 276.152344 238.019531 276.175781 237.972656 276.21875 237.957031 L 276.246094 237.949219 C 276.285156 237.9375 276.332031 237.957031 276.347656 238 L 276.429688 238.226562 C 276.507812 238.445312 276.746094 238.554688 276.964844 238.476562 L 279.539062 237.550781 C 279.753906 237.472656 279.867188 237.234375 279.789062 237.019531 L 279.671875 236.6875 C 279.65625 236.644531 279.675781 236.597656 279.722656 236.582031 C 279.765625 236.566406 279.8125 236.589844 279.828125 236.632812 L 279.949219 236.96875 C 280.027344 237.1875 280.265625 237.296875 280.480469 237.222656 L 283.054688 236.292969 C 283.273438 236.214844 283.386719 235.976562 283.308594 235.761719 L 282.789062 234.320312 C 283.4375 233.890625 288.003906 231.90625 289.113281 232.910156 C 289.460938 233.222656 289.71875 233.210938 289.890625 233.15625 L 290.191406 233.0625 C 290.242188 233.042969 290.296875 233.027344 290.355469 233.007812 L 293.175781 232.105469 C 293.453125 232.015625 293.605469 231.71875 293.515625 231.445312 L 293.210938 230.550781 C 293.164062 230.414062 293.238281 230.261719 293.375 230.210938 L 293.378906 230.210938 C 293.527344 230.15625 293.683594 230.234375 293.730469 230.382812 L 293.988281 231.191406 C 294.078125 231.464844 294.375 231.617188 294.648438 231.53125 L 297.933594 230.476562 C 298.210938 230.390625 298.359375 230.09375 298.273438 229.816406 C 298.273438 229.816406 298.058594 229.140625 297.933594 228.761719 C 297.890625 228.617188 297.960938 228.460938 298.101562 228.402344 L 298.109375 228.398438 C 298.257812 228.339844 298.425781 228.410156 298.484375 228.5625 L 298.875 229.570312 C 299.074219 230.132812 299.488281 229.960938 299.757812 229.855469 L 302.316406 228.566406 C 302.585938 228.460938 302.71875 228.15625 302.613281 227.886719 L 302.195312 226.808594 C 302.128906 226.644531 302.179688 226.550781 302.261719 226.484375 C 302.265625 226.484375 302.269531 226.484375 302.273438 226.480469 C 302.410156 226.414062 302.578125 226.457031 302.667969 226.582031 L 303.0625 227.121094 C 303.308594 227.527344 303.835938 227.660156 304.246094 227.414062 L 306.324219 226.265625 C 306.691406 226.046875 306.832031 225.597656 306.679688 225.210938 C 306.667969 225.183594 306.699219 225.152344 306.730469 225.167969 C 307.003906 225.304688 307.808594 225.386719 309.527344 223.417969 C 309.75 223.160156 309.835938 222.8125 309.753906 222.484375 L 309.6875 222.214844 C 310.109375 222.371094 310.582031 222.238281 310.863281 221.886719 C 310.929688 221.800781 311 221.714844 311.070312 221.625 C 311.601562 220.9375 312.003906 220.160156 312.347656 219.558594 C 312.347656 219.554688 312.351562 219.546875 312.355469 219.542969 C 312.882812 218.59375 312.949219 217.453125 312.589844 216.425781 Z M 116.1875 149.617188 L 119.941406 157.964844 C 118.660156 159.714844 114.695312 163.769531 112.5 163.726562 C 111.136719 163.699219 109.984375 162.332031 109.722656 161.066406 C 108.820312 156.703125 112.933594 152.015625 116.1875 149.617188 Z M 122.328125 258.167969 C 121.347656 262.566406 116.316406 263.582031 115.078125 259.050781 C 114.390625 256.554688 115.542969 251.40625 115.96875 248.671875 C 116.808594 243.261719 117.644531 235.816406 119.042969 230.707031 C 119.113281 230.453125 119.066406 230.136719 119.417969 230.070312 C 120.207031 234.925781 120.902344 239.847656 121.449219 244.742188 C 121.816406 248.039062 122.96875 255.269531 122.328125 258.167969 Z M 117.945312 215.308594 L 118.085938 210.394531 L 121.195312 210.605469 C 121.207031 211.054688 121.09375 212.671875 121.058594 212.980469 C 121.003906 213.433594 120.777344 215.167969 120.410156 215.292969 C 120 215.433594 118.609375 214.945312 117.945312 215.308594 Z M 122.207031 195.742188 C 121.875 195.792969 121.503906 195.796875 121.082031 195.75 C 120.992188 195.660156 121.011719 195.261719 121.09375 194.722656 C 122.46875 191.984375 123.921875 189.0625 125.289062 186.300781 C 124.523438 188.910156 123.394531 192.316406 122.207031 195.742188 Z M 122.902344 178.828125 C 121.652344 180.101562 120.582031 181.691406 121.292969 183.433594 C 117.136719 194.914062 112.867188 203.519531 108.570312 209.011719 C 108.605469 204.660156 108.019531 203.765625 106.101562 199.378906 C 105.605469 198.242188 105.234375 196.886719 104.695312 195.804688 C 104.484375 195.386719 104.019531 195.203125 103.925781 194.730469 C 103.761719 193.929688 103.703125 193.109375 103.695312 192.273438 C 103.726562 190.800781 103.8125 186.980469 103.777344 186.472656 C 103.742188 185.933594 103.007812 185.917969 103.007812 185.917969 C 102.871094 185.679688 102.859375 185.339844 102.8125 184.765625 C 102.550781 181.582031 102.480469 177.257812 102.617188 174.058594 C 102.789062 170.164062 103.710938 166.3125 103.917969 162.4375 C 104.03125 160.25 103.84375 158.066406 103.734375 155.890625 C 104.132812 155.921875 104.511719 155.703125 104.683594 155.34375 C 105.113281 154.445312 105.394531 153.328125 105.609375 152.691406 C 105.707031 152.390625 106.460938 152.179688 106.789062 151.839844 C 107.441406 151.160156 107.570312 150.097656 107.382812 149.195312 C 107.230469 148.472656 106.34375 147.882812 106.3125 147.292969 C 106.28125 146.628906 107.40625 146.261719 107.015625 144.949219 C 106.9375 144.675781 106.539062 144.402344 106.367188 144.046875 C 106.25 143.804688 106.425781 143.527344 106.691406 143.519531 C 107.234375 143.507812 107.722656 143.183594 107.9375 142.683594 L 108.414062 141.582031 C 108.707031 140.902344 109.632812 140.816406 110.046875 141.425781 L 113.675781 146.730469 C 109.570312 150.710938 105.441406 154.886719 106.335938 161.132812 C 106.859375 164.789062 109.992188 168.453125 113.957031 168.050781 C 117.453125 167.695312 119.980469 164.40625 122.828125 162.71875 C 123.496094 164.640625 125.023438 166.1875 125.910156 167.945312 C 125.96875 168.058594 126.050781 168.28125 126.144531 168.550781 C 125.070312 172.171875 123.992188 175.601562 122.902344 178.828125 Z M 131.441406 175.609375 C 131.25 175.308594 131.507812 170.761719 131.589844 170 C 131.621094 169.722656 131.632812 169.429688 131.964844 169.363281 C 132.011719 171.273438 133.375 172.5625 134.304688 174.066406 C 133.796875 175.539062 133.058594 176.296875 131.441406 175.609375 Z M 154.851562 125.8125 C 154.441406 125.855469 154.359375 125.855469 154.148438 125.5 C 153.882812 125.054688 152.851562 122.152344 152.71875 121.578125 C 152.648438 121.265625 152.605469 120.964844 152.636719 120.644531 C 156.027344 120.699219 154.910156 123.476562 154.851562 125.8125 Z M 176.714844 129.867188 C 176.433594 129.859375 176.515625 129.554688 176.570312 129.363281 C 176.816406 128.519531 179.269531 125.863281 180.042969 125.265625 C 180.390625 124.996094 180.757812 124.65625 181.238281 124.707031 C 180.5625 125.628906 177.695312 129.894531 176.714844 129.867188 Z M 181.382812 128.414062 L 183.273438 125.628906 C 183.746094 125.574219 183.5625 125.628906 183.644531 125.894531 C 183.914062 126.796875 183.792969 127.582031 184.375 128.429688 C 183.320312 128.347656 182.273438 128.324219 181.382812 128.414062 Z M 186.203125 100.015625 C 185.867188 100.027344 185.042969 100.28125 185.046875 102.417969 C 185.054688 105.101562 185.707031 104.285156 185.992188 105.1875 C 186.136719 105.636719 186.09375 107.375 186.015625 108.9375 C 185.941406 110.453125 185.269531 111.875 184.15625 112.90625 C 183.308594 113.695312 182.546875 114.671875 182.289062 115.511719 C 181.675781 117.484375 182.179688 119.734375 181.894531 121.761719 C 177.242188 122.765625 175.117188 127.578125 173.484375 131.53125 C 173.144531 131.574219 170.347656 136.226562 168.8125 136.863281 C 167.425781 137.441406 163.105469 137.605469 162.46875 137.78125 C 162.398438 137.800781 162.320312 137.816406 162.238281 137.828125 C 161.0625 138.019531 159.875 137.519531 159.179688 136.550781 C 158.347656 135.390625 157.289062 134.441406 156.398438 133.285156 C 156.460938 132.578125 157.375 132.078125 157.539062 131.542969 C 157.71875 130.964844 157.441406 130.707031 157.46875 130.332031 C 157.503906 129.808594 157.707031 129.355469 157.949219 128.914062 C 158.523438 127.875 158.238281 126.570312 157.273438 125.878906 C 157.375 123.226562 157.21875 120.964844 156.136719 118.527344 C 158.148438 119.242188 160.289062 119.5 162.414062 119.285156 C 166.3125 118.894531 172.007812 118.113281 172.695312 117.917969 C 173.425781 117.707031 174.878906 117.9375 175.769531 117.855469 C 177.597656 117.683594 178.246094 117.4375 179.054688 115.789062 C 180.039062 113.800781 183.882812 104.238281 184.011719 102.464844 C 184.160156 100.378906 183.433594 98.203125 184.089844 95.910156 C 184.335938 95.046875 184.917969 94.5 185.246094 93.746094 C 185.375 93.449219 185.882812 90.816406 186.40625 88.007812 Z M 192.761719 130.429688 C 191.316406 128.957031 189.816406 127.101562 190.148438 125.023438 C 190.335938 123.828125 190.9375 124 191.5625 124.703125 C 192.117188 125.324219 192.460938 126.101562 192.582031 126.921875 C 192.691406 127.660156 192.789062 128.800781 192.761719 130.429688 Z M 192.761719 130.429688 " fill-opacity="1" fill-rule="nonzero"/></g></svg>